<svg version="1.1" viewBox="0.0 0.0 800.0 800.0" fill="none" stroke="none" stroke-linecap="square" stroke-miterlimit="10" xmlns:xlink="http://www.w3.org/1999/xlink" xmlns="http://www.w3.org/2000/svg"><clipPath id="g83f7ea1d5a_0_0.0"><path d="m0 0l800.0 0l0 800.0l-800.0 0l0 -800.0z" clip-rule="nonzero"/></clipPath><g clip-path="url(#g83f7ea1d5a_0_0.0)"><path fill="#000000" fill-opacity="0.0" d="m0 0l800.0 0l0 800.0l-800.0 0z" fill-rule="evenodd"/><path fill="#000000" fill-opacity="0.0" d="m5.086614 309.32285l789.8268 0l0 181.35431l-789.8268 0z" fill-rule="evenodd"/><path fill="#22b5bf" d="m84.886055 466.1572l-45.76563 -32.3125l0 -17.125l45.76563 -32.640625l0 17.28125l-32.812504 23.84375l32.812504 23.84375l0 17.109375zm19.351913 5.765625l0 -129.59375l26.078117 0q12.96875 0 21.4375 3.4375q8.484375 3.4375 12.5625 11.046875q4.078125 7.59375 4.078125 19.90625q0 7.515625 -1.59375 13.6875q-1.59375 6.15625 -5.125 10.40625q-3.515625 4.234375 -9.28125 6.15625l18.40625 64.953125l-17.4375 0l-16.96875 -60.796875l-14.078117 0l0 60.796875l-18.078125 0zm18.078125 -73.765625l6.8906174 0q7.671875 0 12.46875 -1.90625q4.796875 -1.921875 7.03125 -6.5625q2.25 -4.640625 2.25 -12.96875q0 -11.359375 -4.15625 -16.390625q-4.15625 -5.046875 -16.484375 -5.046875l-7.9999924 0l0 42.875zm89.11816 75.046875q-10.875 0 -16.796875 -4.234375q-5.921875 -4.25 -8.25 -12.484375q-2.3125 -8.25 -2.3125 -20.25l0 -21.109375q0 -12.328125 2.40625 -20.484375q2.40625 -8.15625 8.40625 -12.3125q6.0 -4.171875 16.546875 -4.171875q11.6875 0 17.203125 4.8125q5.515625 4.796875 7.28125 13.84375q1.765625 9.03125 1.765625 21.671875l0 7.515625l-36.484375 0l0 18.5625q0 5.59375 1.03125 9.125q1.046875 3.515625 3.359375 5.203125q2.328125 1.671875 6.015625 1.671875q3.828125 0 5.828125 -1.84375q2.0 -1.84375 2.71875 -5.28125q0.734375 -3.4375 0.734375 -8.078125l0 -5.59375l16.625 0l0 3.515625q0 13.921875 -5.921875 21.921875q-5.90625 8.0 -20.15625 8.0zm-10.234375 -56.484375l19.6875 0l0 -8.3125q0 -5.765625 -0.640625 -9.6875q-0.640625 -3.921875 -2.640625 -5.921875q-2.0 -2.0 -6.328125 -2.0q-4.15625 0 -6.328125 1.921875q-2.15625 1.921875 -2.953125 6.484375q-0.796875 4.5625 -0.796875 12.5625l0 4.953125zm77.281906 56.484375q-11.359375 0 -17.203125 -4.5625q-5.84375 -4.5625 -7.84375 -12.875q-2.0 -8.328125 -2.0 -19.359375l0 -21.28125q0 -11.6875 2.078125 -19.921875q2.09375 -8.234375 7.921875 -12.640625q5.84375 -4.40625 17.046875 -4.40625q10.078125 0 15.59375 3.28125q5.53125 3.28125 7.609375 9.765625q2.078125 6.484375 2.078125 16.078125l0 5.4375l-15.515625 0l0 -5.59375q0 -6.078125 -0.8125 -9.59375q-0.796875 -3.53125 -2.875 -5.125q-2.078125 -1.609375 -5.921875 -1.609375q-4.15625 0 -6.40625 1.921875q-2.234375 1.921875 -2.953125 6.484375q-0.71875 4.5625 -0.71875 12.40625l0 29.109375q0 11.84375 2.234375 15.84375q2.25 4.0 8.0 4.0q4.328125 0 6.328125 -2.0q2.0 -2.0 2.5625 -5.671875q0.5625 -3.6875 0.5625 -8.328125l0 -7.515625l15.515625 0l0 6.390625q0 9.28125 -2.171875 16.0q-2.15625 6.71875 -7.671875 10.25q-5.515625 3.515625 -15.4375 3.515625zm40.963165 -1.28125l0 -129.59375l17.109375 0l0 46.71875q4.640625 -4.484375 10.40625 -7.6875q5.765625 -3.203125 12.796875 -3.203125q5.4375 0 8.390625 2.890625q2.96875 2.875 4.171875 7.203125q1.203125 4.3125 1.203125 8.796875l0 74.875l-17.125 0l0 -69.921875q0 -4.953125 -1.4375 -7.671875q-1.4375 -2.71875 -5.921875 -2.71875q-3.03125 0 -6.3125 1.765625q-3.28125 1.75 -6.171875 4.3125l0 74.234375l-17.109375 0zm87.35629 1.28125q-5.4375 0 -9.609375 -3.109375q-4.15625 -3.125 -6.5625 -8.0q-2.390625 -4.890625 -2.390625 -10.328125q0 -8.640625 2.875 -14.5625q2.890625 -5.921875 7.921875 -10.0q5.046875 -4.078125 11.6875 -7.109375q6.640625 -3.046875 14.0 -5.9375l0 -6.546875q0 -5.609375 -0.640625 -9.28125q-0.640625 -3.6875 -2.640625 -5.515625q-2.0 -1.84375 -6.0 -1.84375q-3.515625 0 -5.6875 1.59375q-2.15625 1.59375 -3.125 4.5625q-0.953125 2.953125 -0.953125 6.953125l0 4.640625l-16.953125 -0.640625q0.3125 -15.359375 7.03125 -22.640625q6.71875 -7.28125 20.8125 -7.28125q13.75 0 19.5 7.53125q5.765625 7.515625 5.765625 21.75l0 42.25q0 4.3125 0.234375 8.3125q0.25 4.0 0.640625 7.4375q0.40625 3.4375 0.734375 6.484375l-15.6875 0q-0.46875 -2.5625 -1.203125 -6.484375q-0.71875 -3.921875 -1.03125 -7.109375q-1.59375 5.4375 -6.15625 10.15625q-4.5625 4.71875 -12.5625 4.71875zm6.71875 -14.71875q2.5625 0 4.796875 -1.4375q2.25 -1.4375 4.0 -3.28125q1.765625 -1.84375 2.40625 -2.96875l0 -26.234375q-4.0 2.234375 -7.53125 4.484375q-3.515625 2.234375 -6.15625 4.71875q-2.640625 2.46875 -4.15625 5.59375q-1.515625 3.125 -1.515625 7.125q0 5.59375 2.078125 8.796875q2.078125 3.203125 6.078125 3.203125zm45.285034 13.4375l0 -92.484375l17.109375 0l0 13.125q5.125 -8.484375 10.234375 -11.359375q5.125 -2.875 10.25 -2.875q0.640625 0 1.203125 0q0.5625 0 1.515625 0.15625l0 18.875q-1.921875 -0.796875 -4.40625 -1.359375q-2.46875 -0.5625 -5.03125 -0.5625q-4.0 0 -7.28125 1.84375q-3.28125 1.84375 -6.484375 7.125l0 67.515625l-17.109375 0zm75.516266 1.28125q-7.203125 0 -11.609375 -2.71875q-4.390625 -2.71875 -6.390625 -7.671875q-2.0 -4.96875 -2.0 -11.6875l0 -60.328125l-9.765625 0l0 -11.359375l9.765625 0l0 -27.03125l17.125 0l0 27.03125l14.875 0l0 11.359375l-14.875 0l0 59.203125q0 5.4375 1.75 7.765625q1.765625 2.3125 6.71875 2.3125q1.28125 0 2.953125 -0.15625q1.6875 -0.15625 3.296875 -0.3125l0 12.625q-3.203125 0.484375 -5.921875 0.71875q-2.71875 0.25 -5.921875 0.25zm46.076904 0q-11.359375 0 -18.25 -7.109375q-6.875 -7.125 -7.828125 -18.8125l14.234375 -4.3125q1.28125 8.796875 4.3125 13.203125q3.046875 4.390625 8.96875 4.390625q4.640625 0 7.03125 -2.640625q2.40625 -2.640625 2.40625 -7.125q0 -4.0 -1.765625 -7.1875q-1.75 -3.203125 -5.75 -6.5625l-15.84375 -13.609375q-4.796875 -4.15625 -8.078125 -9.265625q-3.28125 -5.125 -3.28125 -13.296875q0 -7.359375 2.953125 -12.390625q2.96875 -5.046875 8.328125 -7.6875q5.359375 -2.640625 12.5625 -2.640625q11.046875 0 16.875 7.125q5.84375 7.125 6.640625 17.203125l-11.515625 4.3125q-0.640625 -4.796875 -1.921875 -8.390625q-1.28125 -3.609375 -3.515625 -5.609375q-2.234375 -2.0 -5.921875 -2.0q-4.15625 0 -6.640625 2.8125q-2.484375 2.796875 -2.484375 6.625q0 2.40625 1.046875 4.734375q1.046875 2.3125 3.59375 4.546875l16.328125 15.046875q3.359375 3.046875 6.3125 6.5625q2.96875 3.515625 4.890625 8.0q1.921875 4.484375 1.921875 10.390625q0 7.84375 -3.203125 13.125q-3.203125 5.28125 -8.96875 7.921875q-5.75 2.640625 -13.4375 2.640625zm71.04254 -1.28125l34.875 -129.59375l14.890625 0l-35.046875 129.59375l-14.71875 0zm63.680664 -5.765625l0 -17.109375l32.953125 -24.0l-32.953125 -23.6875l0 -17.28125l45.921875 32.484375l0 17.125l-45.921875 32.46875z" fill-rule="nonzero"/></g></svg>